<?xml version="1.0" encoding="UTF-8" standalone="no"?>
<svg width="32px" height="32px" viewBox="0 0 32 32" version="1.1" xmlns="http://www.w3.org/2000/svg" xmlns:xlink="http://www.w3.org/1999/xlink" xmlns:sketch="http://www.bohemiancoding.com/sketch/ns">
    <!-- Generator: Sketch 3.3 (11970) - http://www.bohemiancoding.com/sketch -->
    <title>annotation-icon</title>
    <desc>Created with Sketch.</desc>
    <defs></defs>
    <g id="assets" stroke="none" stroke-width="1" fill="none" fill-rule="evenodd" sketch:type="MSPage">
        <g id="section-icons" sketch:type="MSArtboardGroup" transform="translate(-470.000000, -58.000000)">
            <g id="annotation-icon" sketch:type="MSLayerGroup" transform="translate(470.000000, 58.000000)">
                <path d="M19.9082031,18.7734375 L12.0917969,18.7734375 L10.3339844,23.53125 L8.88085938,23.53125 L15.3613281,6.46875 L16.6855469,6.46875 L23.1191406,23.53125 L21.6660156,23.53125 L19.9082031,18.7734375 Z M12.5605469,17.5195312 L19.4511719,17.5195312 L16.0527344,8.28515625 L15.9824219,8.28515625 L12.5605469,17.5195312 Z" id="A" fill="#FFA400" sketch:type="MSShapeGroup"></path>
                <path d="M1,4.0042577 L1,4.0042577 L1,27.9957423 C1,29.6572516 2.34361515,31 4.0042577,31 L27.9957423,31 C29.6572516,31 31,29.6563848 31,27.9957423 L31,4.0042577 C31,2.34274837 29.6563848,1 27.9957423,1 L4.0042577,1 C2.34274837,1 1,2.34361515 1,4.0042577 L1,4.0042577 Z M0,4.0042577 C0,1.79276724 1.78902751,0 4.0042577,0 L27.9957423,0 C30.2072328,0 32,1.78902751 32,4.0042577 L32,27.9957423 C32,30.2072328 30.2109725,32 27.9957423,32 L4.0042577,32 C1.79276724,32 0,30.2109725 0,27.9957423 L0,4.0042577 L0,4.0042577 Z" id="Shape" fill="#FFDA97" sketch:type="MSShapeGroup"></path>
            </g>
        </g>
    </g>
</svg>