<?xml version="1.0" encoding="UTF-8" standalone="no"?>
<svg width="60px" height="50px" viewBox="0 0 60 50" version="1.1" xmlns="http://www.w3.org/2000/svg" xmlns:xlink="http://www.w3.org/1999/xlink" xmlns:sketch="http://www.bohemiancoding.com/sketch/ns">
    <!-- Generator: Sketch 3.3.2 (12043) - http://www.bohemiancoding.com/sketch -->
    <title>icon-section-get-snappy</title>
    <desc>Created with Sketch.</desc>
    <defs></defs>
    <g id="assets" stroke="none" stroke-width="1" fill="none" fill-rule="evenodd" sketch:type="MSPage">
        <g id="section-icons" sketch:type="MSArtboardGroup" transform="translate(-819.000000, -336.000000)">
            <g id="icon-section-get-snappy" sketch:type="MSLayerGroup" transform="translate(819.000000, 336.000000)">
                <path d="M1,6.00631606 L1,6.00631606 L1,43.9936839 C1,46.7593973 3.2384931,49 6.0000383,49 L53.9999617,49 C56.755935,49 59,46.7557388 59,43.9936839 L59,6.00631606 C59,3.24060272 56.7615069,1 53.9999617,1 L6.0000383,1 C3.24406503,1 1,3.24426116 1,6.00631606 L1,6.00631606 Z M0,6.00631606 C0,2.6891193 2.69463714,0 6.0000383,0 L53.9999617,0 C57.3136914,0 60,2.68821716 60,6.00631606 L60,43.9936839 C60,47.3108807 57.3053629,50 53.9999617,50 L6.0000383,50 C2.68630865,50 0,47.3117828 0,43.9936839 L0,6.00631606 L0,6.00631606 Z" id="Shape" fill="#E6F0FF" sketch:type="MSShapeGroup"></path>
                <path d="M30,40.5 C38.5604136,40.5 45.5,33.5604136 45.5,25 C45.5,16.4395864 38.5604136,9.5 30,9.5 C21.4395864,9.5 14.5,16.4395864 14.5,25 C14.5,33.5604136 21.4395864,40.5 30,40.5 L30,40.5 Z M30,39.5 C21.9918711,39.5 15.5,33.0081289 15.5,25 C15.5,16.9918711 21.9918711,10.5 30,10.5 C38.0081289,10.5 44.5,16.9918711 44.5,25 C44.5,33.0081289 38.0081289,39.5 30,39.5 L30,39.5 Z" id="Shape" fill="#73A9FD" sketch:type="MSShapeGroup"></path>
                <path d="M29.5,19 L29.5,29.5 C29.5,29.7761424 29.7238576,30 30,30 C30.2761424,30 30.5,29.7761424 30.5,29.5 L30.5,19 C30.5,18.7238576 30.2761424,18.5 30,18.5 C29.7238576,18.5 29.5,18.7238576 29.5,19 L29.5,19 Z" id="Shape" fill="#73A9FD" sketch:type="MSShapeGroup"></path>
                <path d="M25.1464466,25.8535534 L29.6464466,30.3535534 C29.8417088,30.5488155 30.1582912,30.5488155 30.3535534,30.3535534 L34.8535534,25.8535534 C35.0488155,25.6582912 35.0488155,25.3417088 34.8535534,25.1464466 C34.6582912,24.9511845 34.3417088,24.9511845 34.1464466,25.1464466 L29.6464466,29.6464466 L30.3535534,29.6464466 L25.8535534,25.1464466 C25.6582912,24.9511845 25.3417088,24.9511845 25.1464466,25.1464466 C24.9511845,25.3417088 24.9511845,25.6582912 25.1464466,25.8535534 L25.1464466,25.8535534 Z" id="Shape" fill="#73A9FD" sketch:type="MSShapeGroup"></path>
            </g>
        </g>
    </g>
</svg>