<?xml version="1.0" encoding="UTF-8" standalone="no"?>
<svg width="60px" height="40px" viewBox="0 0 60 40" version="1.1" xmlns="http://www.w3.org/2000/svg" xmlns:xlink="http://www.w3.org/1999/xlink" xmlns:sketch="http://www.bohemiancoding.com/sketch/ns">
    <!-- Generator: Sketch 3.3 (11970) - http://www.bohemiancoding.com/sketch -->
    <title>icon-ipad-iphone</title>
    <desc>Created with Sketch.</desc>
    <defs></defs>
    <g id="download" stroke="none" stroke-width="1" fill="none" fill-rule="evenodd" sketch:type="MSPage">
        <g id="download-announcing-windows" sketch:type="MSArtboardGroup" transform="translate(-570.000000, -391.000000)" fill="#343434">
            <g id="icon-ipad-iphone" sketch:type="MSLayerGroup" transform="translate(570.000000, 391.000000)">
                <path d="M40,3.0065012 C40,1.34605644 41.343312,0 42.9942021,0 L57.0057979,0 C58.6594501,0 60,1.34230941 60,3.0065012 L60,36.9934988 C60,38.6539436 58.656688,40 57.0057979,40 L42.9942021,40 C41.3405499,40 40,38.6576906 40,36.9934988 L40,3.0065012 Z M49,2.5 C49,2.22385763 49.2150574,2 49.4904785,2 L52.5095215,2 C52.7804053,2 53,2.23193359 53,2.5 C53,2.77614237 52.7849426,3 52.5095215,3 L49.4904785,3 C49.2195947,3 49,2.76806641 49,2.5 Z M47,2.5 C47,2.22385763 47.2319336,2 47.5,2 C47.7761424,2 48,2.23193359 48,2.5 C48,2.77614237 47.7680664,3 47.5,3 C47.2238576,3 47,2.76806641 47,2.5 Z M50,39 C50.8284271,39 51.5,38.3284271 51.5,37.5 C51.5,36.6715729 50.8284271,36 50,36 C49.1715729,36 48.5,36.6715729 48.5,37.5 C48.5,38.3284271 49.1715729,39 50,39 Z M41,5 L59,5 L59,35 L41,35 L41,5 Z" id="Rectangle-23" sketch:type="MSShapeGroup"></path>
                <path d="M0,1.99729162 C0,0.894217919 0.899897516,0 1.99124431,0 L26.0087557,0 C27.1084896,0 28,0.891539827 28,1.99729162 L28,38.0027084 C28,39.1057821 27.1001025,40 26.0087557,40 L1.99124431,40 C0.891510444,40 0,39.1084602 0,38.0027084 L0,1.99729162 Z M2,5 L26,5 L26,35 L2,35 L2,5 Z M13.5,2.5 C13.5,2.22385763 13.7319336,2 14,2 C14.2761424,2 14.5,2.23193359 14.5,2.5 C14.5,2.77614237 14.2680664,3 14,3 C13.7238576,3 13.5,2.76806641 13.5,2.5 Z M12.5,37.5 C12.5,36.6715729 13.1657972,36 14,36 C14.8284271,36 15.5,36.6657972 15.5,37.5 C15.5,38.3284271 14.8342028,39 14,39 C13.1715729,39 12.5,38.3342028 12.5,37.5 Z" id="Rectangle-27" sketch:type="MSShapeGroup"></path>
            </g>
        </g>
    </g>
</svg>