<?xml version="1.0" encoding="UTF-8" standalone="no"?>
<svg width="60px" height="50px" viewBox="0 0 60 50" version="1.1" xmlns="http://www.w3.org/2000/svg" xmlns:xlink="http://www.w3.org/1999/xlink" xmlns:sketch="http://www.bohemiancoding.com/sketch/ns">
    <!-- Generator: Sketch 3.3 (11970) - http://www.bohemiancoding.com/sketch -->
    <title>icon-section-reviews</title>
    <desc>Created with Sketch.</desc>
    <defs></defs>
    <g id="assets" stroke="none" stroke-width="1" fill="none" fill-rule="evenodd" sketch:type="MSPage">
        <g id="section-icons" sketch:type="MSArtboardGroup" transform="translate(-750.000000, -276.000000)">
            <g id="icon-section-reviews" sketch:type="MSLayerGroup" transform="translate(750.000000, 276.000000)">
                <path d="M1,6 L1,6 L1,44 C1,46.7593973 3.2384931,49 6,49 L54,49 C56.755935,49 59,46.7557388 59,44 L59,6 C59,3.24060272 56.7615069,1 54,1 L6,1 C3.24406503,1 1,3.24426116 1,6 L1,6 Z M0,6 C0,2.6891193 2.69463714,0 6,0 L54,0 C57.3136914,0 60,2.68821716 60,6 L60,44 C60,47.3108807 57.3053629,50 54,50 L6,50 C2.68630865,50 0,47.3117828 0,44 L0,6 L0,6 Z" id="Shape" fill="#FFC0C0" sketch:type="MSShapeGroup"></path>
                <path d="M33.5014555,32.7497695 C31.567655,34.7259732 28.4388015,34.7325712 26.4985445,32.7497695 L20.1472437,26.2592012 C18.8239264,24.9634351 18,23.139479 18,21.1189096 C18,17.1872444 21.1195643,14 24.9677419,14 C26.9454052,14 28.7306302,14.8418018 29.9988812,16.1938289 C31.2693698,14.8418018 33.0545948,14 35.0322581,14 C38.8804357,14 42,17.1872444 42,21.1189096 C42,23.139479 41.1760736,24.9634351 39.8527563,26.2592012 L33.5014555,32.7497695 Z" id="Rectangle-1-Copy" stroke="#FF4747" stroke-linecap="round" stroke-linejoin="round" sketch:type="MSShapeGroup"></path>
            </g>
        </g>
    </g>
</svg>