<?xml version="1.0" encoding="UTF-8" standalone="no"?>
<svg width="32px" height="32px" viewBox="0 0 32 32" version="1.1" xmlns="http://www.w3.org/2000/svg" xmlns:xlink="http://www.w3.org/1999/xlink" xmlns:sketch="http://www.bohemiancoding.com/sketch/ns">
    <!-- Generator: Sketch 3.3.2 (12043) - http://www.bohemiancoding.com/sketch -->
    <title>icon-twitter</title>
    <desc>Created with Sketch.</desc>
    <defs></defs>
    <g id="assets" stroke="none" stroke-width="1" fill="none" fill-rule="evenodd" sketch:type="MSPage">
        <g id="section-icons" sketch:type="MSArtboardGroup" transform="translate(-829.000000, -58.000000)">
            <g id="icon-twitter" sketch:type="MSLayerGroup" transform="translate(829.000000, 58.000000)">
                <path d="M0,4.0042577 C0,1.79276724 1.78902751,0 4.0042577,0 L27.9957423,0 C30.2072328,0 32,1.78902751 32,4.0042577 L32,27.9957423 C32,30.2072328 30.2109725,32 27.9957423,32 L4.0042577,32 C1.79276724,32 0,30.2109725 0,27.9957423 L0,4.0042577 Z M1,4.0042577 L1,27.9957423 C1,29.6572516 2.34361515,31 4.0042577,31 L27.9957423,31 C29.6572516,31 31,29.6563848 31,27.9957423 L31,4.0042577 C31,2.34274837 29.6563848,1 27.9957423,1 L4.0042577,1 C2.34274837,1 1,2.34361515 1,4.0042577 Z" fill="#C2E3FF" sketch:type="MSShapeGroup"></path>
                <path d="M26.301712,11.6344012 C26.301712,11.4080044 26.290235,11.2307986 26.290235,11.2307986 C26.290235,11.2307986 28.0603585,9.63602308 28.7227316,8.64549883 C29.0011832,8.22909744 28.5623638,7.707436 28.1044335,7.91047606 C27.2339241,8.29644807 27.505676,8.13763428 27.1686629,8.27120987 C27.5799615,7.75261681 27.8988026,7.16088427 28.1032791,6.52157131 C28.2433835,6.08352327 27.7676319,5.70461032 27.3720357,5.93917156 C26.4320555,6.496515 25.6635644,6.82513428 24.5891741,7.05411832 C23.5647436,6.06648133 22.1929506,5.5 20.7339446,5.5 C17.6687476,5.5 15.1836445,7.9844368 15.1836445,11.0489247 C15.1836445,11.4796702 15.2411401,11.4501343 15.2411403,11.6572283 C11.51929,11.3094901 8.1345112,9.48004843 5.79281501,6.60823931 C5.57217535,6.33765126 5.14917957,6.37077296 4.97334632,6.67240589 C4.48354649,7.51263245 4.22156444,8.46913802 4.22156444,9.46253905 C4.22156444,11.3390745 4.89641749,12.2481689 5.33793526,12.7998842 C5.19669027,12.7392193 5.05839783,12.6713311 4.92352881,12.5964321 C4.59356197,12.4131864 4.18730281,12.6476223 4.18085046,13.025002 C4.1804111,13.0637781 4.1804111,13.0637781 4.18041724,13.0970123 C4.18041724,15.7524131 6.82804549,17.6974071 6.54475199,17.6432259 C6.17205657,17.5719461 5.85890224,17.9254998 5.97466254,18.2868615 C6.69325424,20.5300439 8.75701927,21.4832153 9.85016191,21.9404088 C8.37070304,22.8239041 6.67045182,23.3021226 4.89641749,23.3021226 C4.51051831,23.3021226 4.12804779,23.2796658 3.75031909,23.235085 C3.22334465,23.1728897 2.97515701,23.866235 3.42189337,24.152586 C5.79964693,25.6766892 8.55694726,26.5 11.4331486,26.5 C20.1616189,26.5 26.301712,19.5355605 26.301712,11.6344012 Z M5.71251818,24.2713352 C7.8296163,24.1110814 9.82332961,23.3297749 11.4767151,22.0343783 C11.8471297,21.7441653 11.6480567,21.1495593 11.1775727,21.1408776 C9.21876956,21.1047326 7.72218478,19.8093596 7.22137017,18.7219628 C7.28110476,18.7239075 7.34094799,18.7248828 7.4009039,18.7248828 C7.89962823,18.7248828 8.39010238,18.6589803 8.86284698,18.5302516 C9.37184216,18.3916519 9.34709521,17.6614192 8.82988455,17.5575966 C6.72185981,17.1344413 5.06795418,14.8384428 5.24994611,13.8397493 C5.8019655,14.0159947 6.36542182,14.1462009 6.9524607,14.1647752 C7.45486619,14.1806717 7.66400039,13.5285425 7.24605272,13.2492868 C5.99081626,12.4105888 5.22156444,11.0016983 5.22156444,9.46253905 C5.22156444,8.6472977 5.36771284,7.65757325 5.55033875,7.8582204 C8.16965453,10.7360061 11.824267,12.4999943 15.7894182,12.6989058 C16.1213318,12.7155562 16.3768264,12.4097675 16.3014324,12.0861016 C16.2233569,11.7509242 16.1836445,11.4035065 16.1836445,11.0489247 C16.1836445,8.53678159 18.2209723,6.5 20.7339446,6.5 C22.0090094,6.5 23.2010923,7.02648573 24.0556491,7.93671677 C24.1735417,8.06229014 24.3477671,8.1183427 24.5167647,8.08506898 C25.7086886,7.8503927 26.7883587,7.09856611 26.5122774,7.48171684 C26.1507643,7.9834315 25.6876143,8.41123504 25.1495101,8.7337203 C24.6869414,9.01093722 24.9303911,9.7230494 25.4658586,9.65906782 C26.5258794,9.53240876 26.8468445,9.39457393 26.8468445,9.39457393 C26.8468445,9.39457393 25.9803146,10.225287 25.4945713,10.575754 C25.357867,10.6743871 25.2800655,10.8352644 25.2876295,11.0036668 C25.2970165,11.2126555 25.301712,11.4229285 25.301712,11.6344012 C25.301712,19.0093528 19.5793307,25.5 11.4331486,25.5 C8.75006954,25.5 7.50769033,25.0300903 5.71251818,24.2713352 Z" id="Path" fill="#65BAFE" sketch:type="MSShapeGroup"></path>
            </g>
        </g>
    </g>
</svg>