<?xml version="1.0" encoding="UTF-8" standalone="no"?>
<svg width="60px" height="50px" viewBox="0 0 60 50" version="1.1" xmlns="http://www.w3.org/2000/svg" xmlns:xlink="http://www.w3.org/1999/xlink" xmlns:sketch="http://www.bohemiancoding.com/sketch/ns">
    <!-- Generator: Sketch 3.3 (11970) - http://www.bohemiancoding.com/sketch -->
    <title>icon-section-organize</title>
    <desc>Created with Sketch.</desc>
    <defs></defs>
    <g id="assets" stroke="none" stroke-width="1" fill="none" fill-rule="evenodd" sketch:type="MSPage">
        <g id="section-icons" sketch:type="MSArtboardGroup" transform="translate(-520.000000, -276.000000)">
            <g id="icon-section-organize" sketch:type="MSLayerGroup" transform="translate(520.000000, 276.000000)">
                <path d="M1,6.00631606 L1,6.00631606 L1,43.9936839 C1,46.7593973 3.2384931,49 6.0000383,49 L53.9999617,49 C56.755935,49 59,46.7557388 59,43.9936839 L59,6.00631606 C59,3.24060272 56.7615069,1 53.9999617,1 L6.0000383,1 C3.24406503,1 1,3.24426116 1,6.00631606 L1,6.00631606 Z M0,6.00631606 C0,2.6891193 2.69463714,0 6.0000383,0 L53.9999617,0 C57.3136914,0 60,2.68821716 60,6.00631606 L60,43.9936839 C60,47.3108807 57.3053629,50 53.9999617,50 L6.0000383,50 C2.68630865,50 0,47.3117828 0,43.9936839 L0,6.00631606 L0,6.00631606 Z" id="Shape" fill="#B6F3DA" sketch:type="MSShapeGroup"></path>
                <path d="M34,27.0068455 L34,27.0068455 L34,38.9931545 C34,39.0006952 33.9993148,39 33.9918031,39 L52.0081969,39 C51.9946712,39 52,38.9946324 52,38.9931545 L52,27.0068455 C52,26.9993048 52.0006852,27 52.0081969,27 L33.9918031,27 C34.0053288,27 34,27.0053676 34,27.0068455 L34,27.0068455 Z M33,27.0068455 C33,26.4507801 33.4553056,26 33.9918031,26 L52.0081969,26 C52.5559546,26 53,26.4499488 53,27.0068455 L53,38.9931545 C53,39.5492199 52.5446944,40 52.0081969,40 L33.9918031,40 C33.4440454,40 33,39.5500512 33,38.9931545 L33,27.0068455 L33,27.0068455 Z" id="Shape" fill="#27DE92" sketch:type="MSShapeGroup"></path>
                <path d="M8,11.0068455 L8,11.0068455 L8,22.9931545 C8,23.0003411 7.99966331,23 7.99339768,23 L24.0066023,23 C23.9998308,23 24,22.9998286 24,22.9931545 L24,11.0068455 C24,10.9996589 24.0003367,11 24.0066023,11 L7.99339768,11 C8.00016918,11 8,11.0001714 8,11.0068455 L8,11.0068455 Z M7,11.0068455 C7,10.4507801 7.44494629,10 7.99339768,10 L24.0066023,10 C24.5552407,10 25,10.4499488 25,11.0068455 L25,22.9931545 C25,23.5492199 24.5550537,24 24.0066023,24 L7.99339768,24 C7.44475929,24 7,23.5500512 7,22.9931545 L7,11.0068455 L7,11.0068455 Z" id="Shape" fill="#27DE92" sketch:type="MSShapeGroup"></path>
                <path d="M28,11.0068455 L28,11.0068455 L28,22.9931545 C28,22.9981403 28.0018542,23 28.0032996,23 L51.9967004,23 C51.996688,23 52,22.9966811 52,22.9931545 L52,11.0068455 C52,11.0018597 51.9981458,11 51.9967004,11 L28.0032996,11 C28.003312,11 28,11.0033189 28,11.0068455 L28,11.0068455 Z M27,11.0068455 C27,10.4507801 27.4512787,10 28.0032996,10 L51.9967004,10 C52.5508075,10 53,10.4499488 53,11.0068455 L53,22.9931545 C53,23.5492199 52.5487213,24 51.9967004,24 L28.0032996,24 C27.4491925,24 27,23.5500512 27,22.9931545 L27,11.0068455 L27,11.0068455 Z" id="Shape" fill="#27DE92" sketch:type="MSShapeGroup"></path>
                <path d="M8,27.0068455 L8,27.0068455 L8,38.9931545 C8,38.9987196 8.00127332,39 8.00069463,39 L29.9993054,39 C29.9985906,39 30,38.9985814 30,38.9931545 L30,27.0068455 C30,27.0012804 29.9987267,27 29.9993054,27 L8.00069463,27 C8.00140941,27 8,27.0014186 8,27.0068455 L8,27.0068455 Z M7,27.0068455 C7,26.4507801 7.44746922,26 8.00069463,26 L29.9993054,26 C30.5519738,26 31,26.4499488 31,27.0068455 L31,38.9931545 C31,39.5492199 30.5525308,40 29.9993054,40 L8.00069463,40 C7.44802625,40 7,39.5500512 7,38.9931545 L7,27.0068455 L7,27.0068455 Z" id="Shape" fill="#27DE92" sketch:type="MSShapeGroup"></path>
            </g>
        </g>
    </g>
</svg>