<?xml version="1.0" encoding="UTF-8" standalone="no"?>
<svg width="60px" height="50px" viewBox="0 0 60 50" version="1.1" xmlns="http://www.w3.org/2000/svg" xmlns:xlink="http://www.w3.org/1999/xlink" xmlns:sketch="http://www.bohemiancoding.com/sketch/ns">
    <!-- Generator: Sketch 3.3 (11970) - http://www.bohemiancoding.com/sketch -->
    <title>icon-section-smartsnaps</title>
    <desc>Created with Sketch.</desc>
    <defs></defs>
    <g id="assets" stroke="none" stroke-width="1" fill="none" fill-rule="evenodd" sketch:type="MSPage">
        <g id="section-icons" sketch:type="MSArtboardGroup" transform="translate(-460.000000, -276.000000)">
            <g id="icon-section-smartsnaps" sketch:type="MSLayerGroup" transform="translate(460.000000, 276.000000)">
                <path d="M1,6.00631606 L1,6.00631606 L1,43.9936839 C1,46.7593973 3.2384931,49 6.0000383,49 L53.9999617,49 C56.755935,49 59,46.7557388 59,43.9936839 L59,6.00631606 C59,3.24060272 56.7615069,1 53.9999617,1 L6.0000383,1 C3.24406503,1 1,3.24426116 1,6.00631606 L1,6.00631606 Z M0,6.00631606 C0,2.6891193 2.69463714,0 6.0000383,0 L53.9999617,0 C57.3136914,0 60,2.68821716 60,6.00631606 L60,43.9936839 C60,47.3108807 57.3053629,50 53.9999617,50 L6.0000383,50 C2.68630865,50 0,47.3117828 0,43.9936839 L0,6.00631606 L0,6.00631606 Z" id="Shape" fill="#FFE9A8" sketch:type="MSShapeGroup"></path>
                <path d="M41,21 C41,14.6487254 36.3512746,10 30,10 C23.6487254,10 19,14.6487254 19,21 C19,24.1998471 20.2055749,26.8493442 22.2074666,28.9672412 C22.90567,29.705904 23.6530929,30.3262624 24.4014308,30.8336572 C24.8539296,31.1404645 25.2101514,31.343326 25.4223547,31.4468959 C25.710119,31.6169952 26,32.1247963 26,32.5024408 L26,32.9975592 C26,33.8304068 26.6647771,34.5 27.5029293,34.5 L32.4970707,34.5 C33.3275607,34.5 34,33.8287489 34,32.9975592 L34,32.5024408 C34,32.1345004 34.2957117,31.6223723 34.6196085,31.4238653 C34.7898486,31.343326 35.1460704,31.1404645 35.5985692,30.8336572 C36.3469071,30.3262624 37.09433,29.705904 37.7925334,28.9672412 C39.7944251,26.8493442 41,24.1998471 41,21 L41,21 Z M40,21 C40,23.9251529 38.9024514,26.3372403 37.065804,28.2803174 C36.4205188,28.9629955 35.7284894,29.5373774 35.0373752,30.0059729 C34.6262027,30.2847598 34.3106801,30.4644438 34.1390295,30.5482212 C33.4806839,30.9490148 33,31.7814869 33,32.5024408 L33,32.9975592 C33,33.2760679 32.7756715,33.5 32.4970707,33.5 L27.5029293,33.5 C27.2186842,33.5 27,33.2797315 27,32.9975592 L27,32.5024408 C27,31.7703869 26.5223999,30.9337476 25.8942522,30.5660514 C25.6893199,30.4644438 25.3737973,30.2847598 24.9626248,30.0059729 C24.2715106,29.5373774 23.5794812,28.9629955 22.934196,28.2803174 C21.0975486,26.3372403 20,23.9251529 20,21 C20,15.2010101 24.2010101,11 30,11 C35.7989899,11 40,15.2010101 40,21 L40,21 Z" id="Shape" fill="#FFBE00" sketch:type="MSShapeGroup"></path>
                <path d="M27.5497519,36.4975186 L32.5497519,35.9975186 C32.8245238,35.9700414 33.0249958,35.7250201 32.9975186,35.4502481 C32.9700414,35.1754762 32.7250201,34.9750042 32.4502481,35.0024814 L27.4502481,35.5024814 C27.1754762,35.5299586 26.9750042,35.7749799 27.0024814,36.0497519 C27.0299586,36.3245238 27.2749799,36.5249958 27.5497519,36.4975186 L27.5497519,36.4975186 Z" id="Shape" fill="#FFBE00" sketch:type="MSShapeGroup"></path>
                <path d="M27.5497519,38.4975186 L32.5497519,37.9975186 C32.8245238,37.9700414 33.0249958,37.7250201 32.9975186,37.4502481 C32.9700414,37.1754762 32.7250201,36.9750042 32.4502481,37.0024814 L27.4502481,37.5024814 C27.1754762,37.5299586 26.9750042,37.7749799 27.0024814,38.0497519 C27.0299586,38.3245238 27.2749799,38.5249958 27.5497519,38.4975186 L27.5497519,38.4975186 Z" id="Shape" fill="#FFBE00" sketch:type="MSShapeGroup"></path>
                <path d="M29,40 L31,40 C31.2761424,40 31.5,39.7761424 31.5,39.5 C31.5,39.2238576 31.2761424,39 31,39 L29,39 C28.7238576,39 28.5,39.2238576 28.5,39.5 C28.5,39.7761424 28.7238576,40 29,40 L29,40 Z" id="Shape" fill="#FFBE00" sketch:type="MSShapeGroup"></path>
            </g>
        </g>
    </g>
</svg>