<?xml version="1.0" encoding="UTF-8" standalone="no"?>
<svg width="32px" height="32px" viewBox="0 0 32 32" version="1.1" xmlns="http://www.w3.org/2000/svg" xmlns:xlink="http://www.w3.org/1999/xlink" xmlns:sketch="http://www.bohemiancoding.com/sketch/ns">
    <!-- Generator: Sketch 3.3.2 (12043) - http://www.bohemiancoding.com/sketch -->
    <title>icon-newsletter</title>
    <desc>Created with Sketch.</desc>
    <defs></defs>
    <g id="assets" stroke="none" stroke-width="1" fill="none" fill-rule="evenodd" sketch:type="MSPage">
        <g id="section-icons" sketch:type="MSArtboardGroup" transform="translate(-879.000000, -58.000000)">
            <g id="icon-newsletter" sketch:type="MSLayerGroup" transform="translate(879.000000, 58.000000)">
                <path d="M0,4.0042577 C0,1.79276724 1.78902751,0 4.0042577,0 L27.9957423,0 C30.2072328,0 32,1.78902751 32,4.0042577 L32,27.9957423 C32,30.2072328 30.2109725,32 27.9957423,32 L4.0042577,32 C1.79276724,32 0,30.2109725 0,27.9957423 L0,4.0042577 Z M1,4.0042577 L1,27.9957423 C1,29.6572516 2.34361515,31 4.0042577,31 L27.9957423,31 C29.6572516,31 31,29.6563848 31,27.9957423 L31,4.0042577 C31,2.34274837 29.6563848,1 27.9957423,1 L4.0042577,1 C2.34274837,1 1,2.34361515 1,4.0042577 Z" id="icon-twitter" fill="#E7E7E7" sketch:type="MSShapeGroup"></path>
                <rect id="Rectangle-58" stroke="#FFFFFF" fill="#5081D9" sketch:type="MSShapeGroup" x="21" y="6" width="5" height="5" rx="1"></rect>
                <path d="M5.5,24.5 L19.5,24.5 C19.7761424,24.5 20,24.2761424 20,24 C20,23.7238576 19.7761424,23.5 19.5,23.5 L5.5,23.5 C5.22385763,23.5 5,23.7238576 5,24 C5,24.2761424 5.22385763,24.5 5.5,24.5 Z M5.5,22.5 L9.5,22.5 C9.77614237,22.5 10,22.2761424 10,22 C10,21.7238576 9.77614237,21.5 9.5,21.5 L5.5,21.5 C5.22385763,21.5 5,21.7238576 5,22 C5,22.2761424 5.22385763,22.5 5.5,22.5 Z M5.5,26.5 L19.5,26.5 C19.7761424,26.5 20,26.2761424 20,26 C20,25.7238576 19.7761424,25.5 19.5,25.5 L5.5,25.5 C5.22385763,25.5 5,25.7238576 5,26 C5,26.2761424 5.22385763,26.5 5.5,26.5 Z" id="Shape" fill="#B3B3B3" sketch:type="MSShapeGroup"></path>
            </g>
        </g>
    </g>
</svg>