<?xml version="1.0" encoding="UTF-8" standalone="no"?>
<svg width="60px" height="50px" viewBox="0 0 60 50" version="1.1" xmlns="http://www.w3.org/2000/svg" xmlns:xlink="http://www.w3.org/1999/xlink" xmlns:sketch="http://www.bohemiancoding.com/sketch/ns">
    <!-- Generator: Sketch 3.3 (11970) - http://www.bohemiancoding.com/sketch -->
    <title>icon-section-companies</title>
    <desc>Created with Sketch.</desc>
    <defs></defs>
    <g id="assets" stroke="none" stroke-width="1" fill="none" fill-rule="evenodd" sketch:type="MSPage">
        <g id="section-icons" sketch:type="MSArtboardGroup" transform="translate(-819.000000, -276.000000)">
            <g id="icon-section-companies" sketch:type="MSLayerGroup" transform="translate(819.000000, 276.000000)">
                <path d="M31.7030956,33.6425488 L31.7030956,33.6425488 L37.7014684,37.3607211 C38.6508466,37.9492059 39.190676,37.5451695 38.9268317,36.4704425 L37.2442389,29.6166725 C36.9779305,28.5319084 37.4516467,27.0915808 38.2968098,26.3771922 L43.686601,21.8213791 C44.5396573,21.1003186 44.3222123,20.4620562 43.2185539,20.3808781 L36.1802814,19.8631876 C35.0663157,19.7812514 33.842869,18.8856348 33.4246149,17.8610787 L30.7573162,11.327259 C30.3351558,10.2931343 29.660938,10.3027028 29.2426838,11.327259 L26.5753851,17.8610787 C26.1532248,18.8952034 24.923377,19.7820095 23.8197186,19.8631876 L16.7814461,20.3808781 C15.6674804,20.4628143 15.4682359,21.1069904 16.313399,21.8213791 L21.7031902,26.3771922 C22.5562465,27.0982527 23.0196054,28.5419456 22.7557611,29.6166725 L21.0731683,36.4704425 C20.8068599,37.5552066 21.3579378,37.9437608 22.2985316,37.3607211 L28.2969044,33.6425488 C29.2462826,33.0540639 30.7625019,33.0595091 31.7030956,33.6425488 L31.7030956,33.6425488 Z M31.1762397,34.4925034 L31.1762397,34.4925034 C30.5549869,34.1074115 29.4469904,34.1061858 28.8237603,34.4925034 L22.8253874,38.2106757 C21.1226671,39.2661299 19.6222978,38.186037 20.102006,36.2320233 L21.7845988,29.3782533 C21.9588653,28.6684068 21.6176412,27.6142607 21.0576427,27.1409123 L15.6678515,22.5850992 C14.1378855,21.2918692 14.7014752,19.5311661 16.7080907,19.3835723 L23.7463631,18.8658818 C24.4753185,18.8122644 25.372427,18.161992 25.649559,17.483129 L28.3168577,10.9493093 C29.074007,9.09459513 30.9226939,9.08651358 31.6831423,10.9493093 L34.350441,17.483129 C34.6266937,18.1598382 35.5223614,18.8120938 36.2536369,18.8658818 L43.2919093,19.3835723 C45.2898193,19.5305258 45.868781,21.2862342 44.3321485,22.5850992 L38.9423573,27.1409123 C38.3841355,27.6127589 38.04058,28.6661475 38.2154012,29.3782533 L39.897994,36.2320233 C40.3756211,38.1775598 38.8847521,39.2707288 37.1746126,38.2106757 L31.1762397,34.4925034 Z" id="Shape" fill="#FF9612" sketch:type="MSShapeGroup"></path>
                <path d="M1,6 L1,6 L1,44 C1,46.7593973 3.2384931,49 6,49 L54,49 C56.755935,49 59,46.7557388 59,44 L59,6 C59,3.24060272 56.7615069,1 54,1 L6,1 C3.24406503,1 1,3.24426116 1,6 L1,6 Z M0,6 C0,2.6891193 2.69463714,0 6,0 L54,0 C57.3136914,0 60,2.68821716 60,6 L60,44 C60,47.3108807 57.3053629,50 54,50 L6,50 C2.68630865,50 0,47.3117828 0,44 L0,6 L0,6 Z" id="Shape" fill-opacity="0.34" fill="#FFB07D" sketch:type="MSShapeGroup"></path>
            </g>
        </g>
    </g>
</svg>