<?xml version="1.0" encoding="UTF-8" standalone="no"?>
<svg width="60px" height="50px" viewBox="0 0 60 50" version="1.1" xmlns="http://www.w3.org/2000/svg" xmlns:xlink="http://www.w3.org/1999/xlink" xmlns:sketch="http://www.bohemiancoding.com/sketch/ns">
    <!-- Generator: Sketch 3.3 (11970) - http://www.bohemiancoding.com/sketch -->
    <title>icon-section-devices</title>
    <desc>Created with Sketch.</desc>
    <defs></defs>
    <g id="assets" stroke="none" stroke-width="1" fill="none" fill-rule="evenodd" sketch:type="MSPage">
        <g id="section-icons" sketch:type="MSArtboardGroup" transform="translate(-400.000000, -276.000000)">
            <g id="icon-section-devices" sketch:type="MSLayerGroup" transform="translate(400.000000, 276.000000)">
                <path d="M1,6.00631606 L1,6.00631606 L1,43.9936839 C1,46.7593973 3.2384931,49 6.0000383,49 L53.9999617,49 C56.755935,49 59,46.7557388 59,43.9936839 L59,6.00631606 C59,3.24060272 56.7615069,1 53.9999617,1 L6.0000383,1 C3.24406503,1 1,3.24426116 1,6.00631606 L1,6.00631606 Z M0,6.00631606 C0,2.6891193 2.69463714,0 6.0000383,0 L53.9999617,0 C57.3136914,0 60,2.68821716 60,6.00631606 L60,43.9936839 C60,47.3108807 57.3053629,50 53.9999617,50 L6.0000383,50 C2.68630865,50 0,47.3117828 0,43.9936839 L0,6.00631606 L0,6.00631606 Z" id="Shape" fill="#AEE6FF" sketch:type="MSShapeGroup"></path>
                <path d="M21,18.9985023 C21,18.4470447 21.4394583,18 22.0024617,18 L41.9975383,18 C42.5511826,18 43,18.4474894 43,18.9985023 L43,31 L45,31 L45,31 C45,31.5522847 44.5487213,32 43.9967004,32 L20.0032996,32 C19.4491925,32 19,31.546814 19,31 L19,31 L21,31 L21,18.9985023 Z M22,31 L22,19 L42,19 L42,31 L22,31 Z M11,21.0024733 C11,20.4488226 11.4530363,20 11.9970301,20 L19,20 L19,21 L12,21 L12,31 L17,31 L17,32 L11.990778,32 C11.4435864,32 11,31.544239 11,30.9975267 L11,21.0024733 Z M49,25 L45,25 L45,24 L49.0001925,24 C49.5523709,24 50,24.4530363 50,24.9970301 L50,31.0029699 C50,31.5536144 49.5573397,32 49.0010434,32 L47,32 L47,31 L49,31 L49,25 Z" id="Rectangle-65" fill="#12B7FF" sketch:type="MSShapeGroup"></path>
            </g>
        </g>
    </g>
</svg>