<?xml version="1.0" encoding="UTF-8" standalone="no"?>
<svg width="26px" height="26px" viewBox="0 0 26 26" version="1.1" xmlns="http://www.w3.org/2000/svg" xmlns:xlink="http://www.w3.org/1999/xlink" xmlns:sketch="http://www.bohemiancoding.com/sketch/ns">
    <!-- Generator: Sketch 3.3.2 (12043) - http://www.bohemiancoding.com/sketch -->
    <title>icon-play</title>
    <desc>Created with Sketch.</desc>
    <defs></defs>
    <g id="landingpage" stroke="none" stroke-width="1" fill="none" fill-rule="evenodd" sketch:type="MSPage">
        <g id="homepage" sketch:type="MSArtboardGroup" transform="translate(-617.000000, -315.000000)" fill="#29A0FF">
            <g id="button-snappy-video" sketch:type="MSLayerGroup" transform="translate(607.000000, 304.000000)">
                <path d="M23,37 C30.1797017,37 36,31.1797017 36,24 C36,16.8202983 30.1797017,11 23,11 C15.8202983,11 10,16.8202983 10,24 C10,31.1797017 15.8202983,37 23,37 Z M23,36 C29.627417,36 35,30.627417 35,24 C35,17.372583 29.627417,12 23,12 C16.372583,12 11,17.372583 11,24 C11,30.627417 16.372583,36 23,36 Z M21.7721119,19.6434097 C21.3456863,19.2880643 21,19.4556644 21,19.9953976 L21,28.0046024 C21,28.5543453 21.3397772,28.7168449 21.7721119,28.3565566 L26.2278881,24.6433122 C26.6543137,24.2879482 26.6602228,23.7167285 26.2278881,23.3564591 L21.7721119,19.6434097 Z" id="icon-play" sketch:type="MSShapeGroup"></path>
            </g>
        </g>
    </g>
</svg>