<?xml version="1.0" encoding="UTF-8" standalone="no"?>
<svg width="60px" height="50px" viewBox="0 0 60 50" version="1.1" xmlns="http://www.w3.org/2000/svg" xmlns:xlink="http://www.w3.org/1999/xlink" xmlns:sketch="http://www.bohemiancoding.com/sketch/ns">
    <!-- Generator: Sketch 3.3 (11970) - http://www.bohemiancoding.com/sketch -->
    <title>icon-section-usecase</title>
    <desc>Created with Sketch.</desc>
    <defs></defs>
    <g id="assets" stroke="none" stroke-width="1" fill="none" fill-rule="evenodd" sketch:type="MSPage">
        <g id="section-icons" sketch:type="MSArtboardGroup" transform="translate(-640.000000, -276.000000)">
            <g id="icon-section-usecase" sketch:type="MSLayerGroup" transform="translate(640.000000, 276.000000)">
                <path d="M1,6.00631606 L1,6.00631606 L1,43.9936839 C1,46.7593973 3.2384931,49 6.0000383,49 L53.9999617,49 C56.755935,49 59,46.7557388 59,43.9936839 L59,6.00631606 C59,3.24060272 56.7615069,1 53.9999617,1 L6.0000383,1 C3.24406503,1 1,3.24426116 1,6.00631606 L1,6.00631606 Z M0,6.00631606 C0,2.6891193 2.69463714,0 6.0000383,0 L53.9999617,0 C57.3136914,0 60,2.68821716 60,6.00631606 L60,43.9936839 C60,47.3108807 57.3053629,50 53.9999617,50 L6.0000383,50 C2.68630865,50 0,47.3117828 0,43.9936839 L0,6.00631606 L0,6.00631606 Z" id="Shape" fill="#EECFFF" sketch:type="MSShapeGroup"></path>
                <path d="M38.5,22.0856332 L38.5,32.9536079 C38.5,33.2242062 38.2792984,33.4442719 38.0066023,33.4442719 L21.9933977,33.4442719 C21.7209808,33.4442719 21.5,33.2232624 21.5,32.9508742 L21.5,16.9376696 C21.5,16.6688535 21.7271601,16.4442719 21.9999602,16.4442719 L38,16.4442719 C38.2761424,16.4442719 38.5,16.2204143 38.5,15.9442719 C38.5,15.6681295 38.2761424,15.4442719 38,15.4442719 L21.9999602,15.4442719 C21.1774146,15.4442719 20.5,16.1139971 20.5,16.9376696 L20.5,32.9508742 C20.5,33.775518 21.1686669,34.4442719 21.9933977,34.4442719 L38.0066023,34.4442719 C38.8309382,34.4442719 39.5,33.777138 39.5,32.9536079 L39.5,22.0856332 C39.5,21.8094909 39.2761424,21.5856332 39,21.5856332 C38.7238576,21.5856332 38.5,21.8094909 38.5,22.0856332 L38.5,22.0856332 Z" id="Shape" fill="#CF74FF" sketch:type="MSShapeGroup"></path>
                <path d="M24.7141279,23.4212347 L29.6464466,28.3535534 C29.8417088,28.5488155 30.1582912,28.5488155 30.3535534,28.3535534 L42.3535534,16.3535534 C42.5488155,16.1582912 42.5488155,15.8417088 42.3535534,15.6464466 C42.1582912,15.4511845 41.8417088,15.4511845 41.6464466,15.6464466 L29.6464466,27.6464466 L30.3535534,27.6464466 L25.4212347,22.7141279 C25.2259725,22.5188658 24.90939,22.5188658 24.7141279,22.7141279 C24.5188658,22.90939 24.5188658,23.2259725 24.7141279,23.4212347 L24.7141279,23.4212347 Z" id="Shape" fill="#CF74FF" sketch:type="MSShapeGroup"></path>
            </g>
        </g>
    </g>
</svg>