<?xml version="1.0" encoding="UTF-8" standalone="no"?>
<svg width="60px" height="50px" viewBox="0 0 60 50" version="1.1" xmlns="http://www.w3.org/2000/svg" xmlns:xlink="http://www.w3.org/1999/xlink" xmlns:sketch="http://www.bohemiancoding.com/sketch/ns">
    <!-- Generator: Sketch 3.3 (11970) - http://www.bohemiancoding.com/sketch -->
    <title>icon-platform-apple</title>
    <desc>Created with Sketch.</desc>
    <defs></defs>
    <g id="assets" stroke="none" stroke-width="1" fill="none" fill-rule="evenodd" sketch:type="MSPage">
        <g id="section-icons" sketch:type="MSArtboardGroup" transform="translate(-400.000000, -326.000000)">
            <g id="icon-platform-apple" sketch:type="MSLayerGroup" transform="translate(400.000000, 326.000000)">
                <path d="M1,6.00631606 L1,6.00631606 L1,43.9936839 C1,46.7593973 3.2384931,49 6.0000383,49 L53.9999617,49 C56.755935,49 59,46.7557388 59,43.9936839 L59,6.00631606 C59,3.24060272 56.7615069,1 53.9999617,1 L6.0000383,1 C3.24406503,1 1,3.24426116 1,6.00631606 L1,6.00631606 Z M0,6.00631606 C0,2.6891193 2.69463714,0 6.0000383,0 L53.9999617,0 C57.3136914,0 60,2.68821716 60,6.00631606 L60,43.9936839 C60,47.3108807 57.3053629,50 53.9999617,50 L6.0000383,50 C2.68630865,50 0,47.3117828 0,43.9936839 L0,6.00631606 L0,6.00631606 Z" id="Shape" fill="#D7D7D7" sketch:type="MSShapeGroup"></path>
                <path d="M38.5157647,23.0971429 C38.4805882,19.1878095 41.7198824,17.3089524 41.8667059,17.2190476 C40.0444118,14.5615238 37.2065882,14.1965714 36.1956471,14.1539048 C33.7799412,13.9108571 31.4835294,15.5702857 30.26,15.5702857 C29.0357059,15.5702857 27.1453529,14.1897143 25.1425882,14.2285714 C22.5097059,14.2666667 20.0840588,15.7531429 18.7267059,18.1005714 C15.9944118,22.8274286 18.0292941,29.8300952 20.692,33.6647619 C21.9942941,35.5405714 23.5481765,37.6518095 25.5876471,37.575619 C27.5529412,37.4986667 28.2947059,36.3100952 30.6675882,36.3100952 C33.0412353,36.3100952 33.7088235,37.575619 35.785,37.5367619 C37.8978824,37.4986667 39.2391765,35.623619 40.5315294,33.7417143 C42.0265294,31.5649524 42.6421176,29.4575238 42.6772941,29.3470476 C42.6321765,29.328 38.5585882,27.7721905 38.5157647,23.0971429 Z M36.227,6.68419048 C34.6662353,6.74742857 32.7781765,7.72038095 31.6586471,9.02552381 C30.6561176,10.1813333 29.7767059,12.032 30.0145294,13.8041905 C31.7534706,13.9390476 33.5306471,12.9234286 34.6134706,11.6167619 C35.6962941,10.3108571 36.4250588,8.49371429 36.227,6.68419048 Z" id="Fill-5" fill="#1A1918" sketch:type="MSShapeGroup"></path>
            </g>
        </g>
    </g>
</svg>