<?xml version="1.0" encoding="UTF-8" standalone="no"?>
<svg width="32px" height="32px" viewBox="0 0 32 32" version="1.1" xmlns="http://www.w3.org/2000/svg" xmlns:xlink="http://www.w3.org/1999/xlink" xmlns:sketch="http://www.bohemiancoding.com/sketch/ns">
    <!-- Generator: Sketch 3.3.2 (12043) - http://www.bohemiancoding.com/sketch -->
    <title>icon-facebook</title>
    <desc>Created with Sketch.</desc>
    <defs></defs>
    <g id="assets" stroke="none" stroke-width="1" fill="none" fill-rule="evenodd" sketch:type="MSPage">
        <g id="section-icons" sketch:type="MSArtboardGroup" transform="translate(-781.000000, -58.000000)">
            <g id="icon-facebook" sketch:type="MSLayerGroup" transform="translate(781.000000, 58.000000)">
                <path d="M0,4.0042577 C0,1.79276724 1.78902751,0 4.0042577,0 L27.9957423,0 C30.2072328,0 32,1.78902751 32,4.0042577 L32,27.9957423 C32,30.2072328 30.2109725,32 27.9957423,32 L4.0042577,32 C1.79276724,32 0,30.2109725 0,27.9957423 L0,4.0042577 Z M1,4.0042577 L1,27.9957423 C1,29.6572516 2.34361515,31 4.0042577,31 L27.9957423,31 C29.6572516,31 31,29.6563848 31,27.9957423 L31,4.0042577 C31,2.34274837 29.6563848,1 27.9957423,1 L4.0042577,1 C2.34274837,1 1,2.34361515 1,4.0042577 Z" id="icon-twitter-copy" fill="#C2D1F2" sketch:type="MSShapeGroup"></path>
                <path d="M21.4904785,18 L24.5095215,18 C24.7804053,18 25.0537643,17.7849426 25.1226196,17.5095215 L25.8773804,15.4904785 C25.9451013,15.2195947 25.7851562,15 25.5023012,15 L21.4976988,15 C21.2228273,15 21,14.7851562 21,14.5023012 L21,12.0048815 C21,10.897616 21.8938998,10 23.0048815,10 L25.5023012,10 C25.7771727,10 26,9.7842474 26,9.50461102 L26,7.49538898 C26,7.2217932 25.7775269,7 25.4903342,7 L23.0031303,7 C19.687693,7 17,9.68613923 17,13.0018986 L17,14.4995642 C17,14.7759472 16.7849426,15 16.5095215,15 L13.4904785,15 C13.2195947,15 13,15.2150574 13,15.4904785 L13,17.5095215 C13,17.7804053 13.2150574,18 13.4904785,18 L16.5095215,18 C16.7804053,18 17,18.2290006 17,18.5003473 L17,27.4996527 C17,27.7759869 17.2150574,28 17.4904785,28 L20.5095215,28 C20.7804053,28 21,27.7709994 21,27.4996527 L21,18.5003473 C21,18.2240131 21.2150574,18 21.4904785,18 Z M22,27.4996527 C22,28.3191015 21.3370958,29 20.5095215,29 L17.4904785,29 C16.6583608,29 16,28.3240733 16,27.4996527 L16,18.5003473 C16,18.7736576 16.2203608,19 16.5095215,19 L13.4904785,19 C12.6628996,19 12,18.3328373 12,17.5095215 L12,15.4904785 C12,14.6628996 12.6671627,14 13.4904785,14 L16.5095215,14 C16.2250712,14 16,14.2311173 16,14.4995642 L16,13.0018986 C16,9.13412888 19.1351337,6 23.0031303,6 L25.4903342,6 C26.3232717,6 27,6.66290343 27,7.49538898 L27,9.50461102 C27,10.3374018 26.3286579,11 25.5023012,11 L23.0048815,11 C22.447755,11 22,11.4483291 22,12.0048815 L22,14.5023012 C22,14.2276047 21.7698451,14 21.4976988,14 L25.5023012,14 C26.4415617,14 27.0716998,14.8363064 26.8475229,15.7330141 L26.0927621,17.7520571 C25.913928,18.4673936 25.2447448,19 24.5095215,19 L21.4904785,19 C21.774888,19 22,18.7688818 22,18.5003473 L22,27.4996527 Z" id="Shape" fill="#5E7FC4" sketch:type="MSShapeGroup"></path>
            </g>
        </g>
    </g>
</svg>