<?xml version="1.0" encoding="UTF-8" standalone="no"?>
<svg width="32px" height="32px" viewBox="0 0 32 32" version="1.1" xmlns="http://www.w3.org/2000/svg" xmlns:xlink="http://www.w3.org/1999/xlink" xmlns:sketch="http://www.bohemiancoding.com/sketch/ns">
    <!-- Generator: Sketch 3.3 (11970) - http://www.bohemiancoding.com/sketch -->
    <title>opacity</title>
    <desc>Created with Sketch.</desc>
    <defs></defs>
    <g id="assets" stroke="none" stroke-width="1" fill="none" fill-rule="evenodd" sketch:type="MSPage">
        <g id="section-icons" sketch:type="MSArtboardGroup" transform="translate(-566.000000, -58.000000)">
            <g id="opacity" sketch:type="MSLayerGroup" transform="translate(566.000000, 58.000000)">
                <path d="M1,4.0042577 L1,4.0042577 L1,27.9957423 C1,29.6572516 2.34361515,31 4.0042577,31 L27.9957423,31 C29.6572516,31 31,29.6563848 31,27.9957423 L31,4.0042577 C31,2.34274837 29.6563848,1 27.9957423,1 L4.0042577,1 C2.34274837,1 1,2.34361515 1,4.0042577 L1,4.0042577 Z M0,4.0042577 C0,1.79276724 1.78902751,0 4.0042577,0 L27.9957423,0 C30.2072328,0 32,1.78902751 32,4.0042577 L32,27.9957423 C32,30.2072328 30.2109725,32 27.9957423,32 L4.0042577,32 C1.79276724,32 0,30.2109725 0,27.9957423 L0,4.0042577 L0,4.0042577 Z" id="Shape" fill="#FFA9BF" sketch:type="MSShapeGroup"></path>
                <path d="M8,8 L8,24 L16,24 L16,8 L8,8 Z M17,7 L17,25 L7,25 L7,7 L17,7 Z" id="Shape" fill="#FC5681" sketch:type="MSShapeGroup"></path>
                <path d="M17,25 L21,25 L21,7 L17,7 L17,8 L20,8 L20,24 L17,24 L17,25 Z" id="Shape" fill-opacity="0.499915082" fill="#FC5681" sketch:type="MSShapeGroup"></path>
                <path d="M21,25 L25,25 L25,7 L21,7 L21,8 L24,8 L24,24 L21,24 L21,25 Z" id="Shape" fill-opacity="0.25" fill="#FC5681" sketch:type="MSShapeGroup"></path>
            </g>
        </g>
    </g>
</svg>